<svg width="281" height="23" viewBox="0 0 281 23" fill="none" xmlns="http://www.w3.org/2000/svg">
<path fill-rule="evenodd" clip-rule="evenodd" d="M113.564 21.5228C115.242 22.5077 117.315 23 119.683 23C122.644 23 125.309 22.4091 127.48 21.1288V17.9772C125.013 19.5531 122.447 20.3409 119.782 20.3409C117.216 20.3409 115.045 19.5531 113.466 17.9772C111.788 16.4015 110.998 14.4316 110.998 11.9696C110.998 9.60591 111.886 7.53755 113.564 5.96187C115.242 4.38598 117.413 3.59815 119.881 3.59815C122.249 3.59815 124.717 4.28753 127.283 5.6663V2.51474C124.519 1.33287 121.953 0.741943 119.782 0.741943C116.525 0.741943 113.663 1.82535 111.492 3.99217C109.222 6.15878 108.136 8.81787 108.136 11.9696C108.136 13.9393 108.629 15.8106 109.617 17.4847C110.505 19.1591 111.886 20.5378 113.564 21.5228" fill="#020203"/>
<path fill-rule="evenodd" clip-rule="evenodd" d="M161.532 3.18698H162.607C164.167 3.18698 165.24 3.28474 165.923 3.57825C166.607 3.77379 167.094 4.26283 167.486 4.75188C167.875 5.33849 168.07 5.9253 168.07 6.70785C168.07 7.39243 167.875 8.07701 167.582 8.66383C167.289 9.25064 166.802 9.64192 166.119 9.93522C165.436 10.2285 164.46 10.3265 162.801 10.3265H161.532V3.18698ZM161.532 22.2581V12.7715H162.508C163.582 12.7715 164.264 12.8682 164.753 13.1626C165.24 13.3573 165.728 13.7494 166.216 14.3352C166.704 14.8242 167.387 15.6076 167.974 16.4879L171.681 22.2581H175.096L174.12 20.8889C173.632 20.3021 173.047 19.324 172.266 18.0526C171.095 16.0966 170.119 14.7275 169.534 13.9451C168.851 13.1626 168.168 12.5758 167.486 12.0869L167.289 11.989L167.486 11.8912C168.656 11.4021 169.534 10.7176 170.119 9.83744C170.705 8.95712 170.998 7.88147 170.998 6.61007C170.998 4.75187 170.314 3.3825 169.144 2.30685C167.875 1.23099 166.119 0.741943 163.972 0.741943H158.704V20.7911L157.24 22.2581H161.532Z" fill="#020203"/>
<path fill-rule="evenodd" clip-rule="evenodd" d="M180.329 22.2581H184.768L183.255 20.7911V0.741943H178.816L180.329 2.20887V22.2581Z" fill="#020203"/>
<path fill-rule="evenodd" clip-rule="evenodd" d="M229.433 22.2581H233.872L232.358 20.7911V0.741943H227.92L229.433 2.20887V22.2581Z" fill="#020203"/>
<path fill-rule="evenodd" clip-rule="evenodd" d="M193.847 11.9694L196.169 13.4467C198.105 14.6285 199.072 16.0075 199.072 17.3863C199.072 18.2726 198.783 18.9619 198.105 19.5529C197.428 20.1438 196.653 20.4394 195.589 20.4394C193.46 20.4394 191.524 19.4544 189.976 17.4847V21.0303C191.718 22.3106 193.556 23 195.685 23C197.525 23 198.976 22.5075 200.138 21.4241C201.299 20.3409 201.88 18.9619 201.88 17.2878C201.88 14.9241 200.622 12.8557 198.009 11.28L195.685 9.90127C194.621 9.31034 193.847 8.62096 193.363 8.03003C192.879 7.43909 192.589 6.74971 192.589 6.06012C192.589 5.27228 192.976 4.68135 193.654 4.18887C194.331 3.6966 195.201 3.49948 196.169 3.49948C197.912 3.49948 199.556 4.18887 201.008 5.56785V2.21917C199.556 1.23442 197.912 0.741943 196.169 0.741943C194.331 0.741943 192.781 1.23442 191.718 2.31762C190.556 3.40103 189.976 4.7798 189.976 6.45414C189.976 7.53755 190.266 8.62096 190.846 9.4088C191.33 10.1966 192.395 11.0831 193.847 11.9694" fill="#020203"/>
<path fill-rule="evenodd" clip-rule="evenodd" d="M213.76 20.7911L212.296 22.2581H216.589V3.28473H224.2V0.741943H206.344V3.28473H213.76V20.7911Z" fill="#020203"/>
<path fill-rule="evenodd" clip-rule="evenodd" d="M133.442 22.2581H136.339V12.8682H149.124V22.2581H153.52L152.022 20.7911V0.741943H149.124V10.2285H136.339V0.741943H131.944L133.442 2.20887V22.2581Z" fill="#020203"/>
<path fill-rule="evenodd" clip-rule="evenodd" d="M247.39 6.43004L250.345 13.2548H244.73L247.39 6.43004ZM240.789 22.2581L243.646 15.7279H251.528V15.8278L254.582 22.2581H258.424L256.946 20.7741L247.488 0L238.326 20.7741L236.848 22.2581H240.789Z" fill="#020203"/>
<mask id="mask0" mask-type="alpha" maskUnits="userSpaceOnUse" x="261" y="0" width="20" height="23">
<path fill-rule="evenodd" clip-rule="evenodd" d="M261.455 0.052887H280.693V22.9998H261.455V0.052887Z" fill="white"/>
</mask>
<g mask="url(#mask0)">
<path fill-rule="evenodd" clip-rule="evenodd" d="M265.536 22.5011V6.53784L280.693 23V0.551778H277.972V16.3154L262.913 0.052887V21.0046L261.455 22.5011H265.536Z" fill="#020203"/>
</g>
<path fill-rule="evenodd" clip-rule="evenodd" d="M1.72136 17.485C2.69842 19.1582 4.06614 20.5379 5.72706 21.5229C7.38777 22.5076 9.43955 23 11.7841 23C14.7151 23 17.3531 22.4091 19.6 21.1278V17.9774C17.1575 19.553 14.6174 20.34 11.9797 20.34C9.43955 20.34 7.29011 19.553 5.72706 17.9774C4.06614 16.4006 3.18675 14.431 3.18675 11.9699C3.18675 9.60633 4.06614 7.53827 5.72706 5.96245C7.38777 4.2884 9.53722 3.50039 11.9797 3.50039C14.3244 3.50039 16.7669 4.18892 19.307 5.56866V2.51569C16.5713 1.33388 14.0312 0.741943 11.882 0.741943C8.65782 0.741943 5.82472 1.82633 3.67528 3.99284C1.42837 6.15853 0.255981 8.81852 0.255981 11.9699C0.255981 13.9387 0.744306 15.8107 1.72136 17.485" fill="#020203"/>
<path fill-rule="evenodd" clip-rule="evenodd" d="M26.2804 22.2581H38.944V18.2473L37.4714 19.7143H29.1273V0.741943H24.808L26.2804 2.30664V22.2581Z" fill="#020203"/>
<path fill-rule="evenodd" clip-rule="evenodd" d="M44.1771 22.2581H48.6159L47.1028 20.7911V0.741943H42.6639L44.1771 2.20887V22.2581Z" fill="#020203"/>
<path fill-rule="evenodd" clip-rule="evenodd" d="M89.6714 19.7143H79.0426V12.7705H88.8984V10.2277H79.0426V3.28473H89.5748L90.9275 0.741943H76.144V22.2581H91.024L89.6714 19.7143Z" fill="#020203"/>
<mask id="mask1" mask-type="alpha" maskUnits="userSpaceOnUse" x="51" y="0" width="22" height="23">
<path fill-rule="evenodd" clip-rule="evenodd" d="M51.7252 0.873566H72.393V22.9998H51.7252V0.873566Z" fill="white"/>
</mask>
<g mask="url(#mask1)">
<path fill-rule="evenodd" clip-rule="evenodd" d="M62.1575 22.9999L70.9166 2.34857L72.393 0.873566H68.7516L62.1575 16.2145L55.4651 0.873566H51.7252L53.2014 2.34857L62.1575 22.9999Z" fill="#020203"/>
</g>
</svg>
